<svg version="1.1" id="Layer_1" xmlns="http://www.w3.org/2000/svg" xmlns:xlink="http://www.w3.org/1999/xlink" x="0px" y="0px"
	 width="100%" viewBox="0 0 209 69" enable-background="new 0 0 209 69" xml:space="preserve">
<path fill="#FEFEFE" opacity="1.000000" stroke="none" 
	d="
M159.000000,70.000000 
	C106.000008,70.000000 53.500011,70.000000 1.000014,70.000000 
	C1.000009,47.000008 1.000009,24.000017 1.000005,1.000020 
	C70.666649,1.000014 140.333298,1.000014 209.999969,1.000007 
	C209.999969,23.999979 209.999969,46.999958 209.999985,69.999969 
	C193.166672,70.000000 176.333328,70.000000 159.000000,70.000000 
M118.499985,65.919830 
	C129.994034,65.919815 141.490097,65.785957 152.981583,65.957695 
	C164.318832,66.127136 173.193558,61.824863 179.788010,52.534245 
	C188.153748,40.748165 196.698151,29.088800 205.178818,17.384436 
	C207.172531,14.632874 208.994919,11.950134 207.150864,8.290037 
	C205.344574,4.704900 202.218613,4.215479 198.761566,4.215646 
	C151.286362,4.217941 103.811142,4.219123 56.335934,4.217906 
	C46.130707,4.217645 38.105927,8.330218 32.149540,16.679743 
	C23.755747,28.445976 15.278895,40.154118 6.718438,51.799530 
	C4.421565,54.924133 2.661651,58.116379 4.608232,61.834175 
	C6.546041,65.535233 10.158781,65.974876 14.054086,65.965912 
	C48.535900,65.886551 83.017975,65.919830 118.499985,65.919830 
z"/>
<path fill="#040404" opacity="1.000000" stroke="none" 
	d="
M117.999977,65.919830 
	C83.017975,65.919830 48.535900,65.886551 14.054086,65.965912 
	C10.158781,65.974876 6.546041,65.535233 4.608232,61.834175 
	C2.661651,58.116379 4.421565,54.924133 6.718438,51.799530 
	C15.278895,40.154118 23.755747,28.445976 32.149540,16.679743 
	C38.105927,8.330218 46.130707,4.217645 56.335934,4.217906 
	C103.811142,4.219123 151.286362,4.217941 198.761566,4.215646 
	C202.218613,4.215479 205.344574,4.704900 207.150864,8.290037 
	C208.994919,11.950134 207.172531,14.632874 205.178818,17.384436 
	C196.698151,29.088800 188.153748,40.748165 179.788010,52.534245 
	C173.193558,61.824863 164.318832,66.127136 152.981583,65.957695 
	C141.490097,65.785957 129.994034,65.919815 117.999977,65.919830 
M126.035400,36.048656 
	C126.035400,36.048656 126.074692,36.114651 125.411385,35.459972 
	C126.264221,30.968460 127.117065,26.476950 127.993820,21.859474 
	C125.742973,21.859474 123.984741,21.859474 122.061188,21.859474 
	C120.207016,31.259779 118.395103,40.445808 116.564285,49.727715 
	C118.934982,49.727715 120.690781,49.727715 121.628845,49.727715 
	C123.358170,46.844307 124.762306,44.503101 126.468216,41.658733 
	C130.128876,46.018501 131.179718,52.487141 138.467117,49.379486 
	C136.301086,45.731495 134.143448,42.097645 131.945648,38.396164 
	C135.332947,35.473938 138.505020,32.737381 141.677109,30.000820 
	C141.291107,29.380144 140.905106,28.759466 140.519104,28.138790 
	C137.157394,29.754492 133.758453,31.298489 130.450226,33.017136 
	C128.874115,33.835934 127.470612,34.986973 126.035400,36.048656 
M100.820297,29.293791 
	C98.306648,29.473503 95.792999,29.653215 93.150826,29.842115 
	C93.531464,27.259529 93.923737,24.598021 94.316017,21.936512 
	C93.893135,21.552937 93.470261,21.169361 93.047386,20.785788 
	C91.397110,21.826080 88.608521,22.592962 88.282265,23.951271 
	C86.245552,32.430817 84.759216,41.042561 83.008629,50.031178 
	C85.021858,49.934010 87.386955,50.489304 88.110741,49.642212 
	C89.513519,48.000423 90.211174,48.433739 91.764885,49.188286 
	C97.171219,51.813828 103.379211,49.547695 106.155014,44.174877 
	C109.187492,38.305237 107.443512,32.772739 100.820297,29.293791 
M56.838184,23.098846 
	C55.388420,23.570869 52.836990,23.786360 52.658161,24.554335 
	C50.728550,32.840855 49.172424,41.214344 47.457748,49.848274 
	C54.796963,49.848274 61.255127,49.848274 67.950546,49.848274 
	C68.330292,48.349434 68.686668,46.942844 69.192680,44.945648 
	C64.192604,44.945648 59.617210,44.945648 55.156338,44.945648 
	C54.381638,40.012039 56.326653,38.299953 60.657944,38.874413 
	C61.966072,39.047901 63.327137,38.793320 64.645889,38.921177 
	C68.325287,39.277893 69.121338,37.405472 68.689827,33.829460 
	C64.659492,33.829460 60.906616,33.829460 57.210373,33.829460 
	C56.790722,29.417994 58.301586,27.571779 62.560429,28.045261 
	C65.504478,28.372572 68.514313,28.108152 71.685524,28.108152 
	C72.121368,26.492622 72.493813,25.112120 73.036980,23.098804 
	C67.646469,23.098804 62.706135,23.098804 56.838184,23.098846 
M143.945953,48.967709 
	C148.885666,50.976063 153.612762,50.788624 158.192139,47.741337 
	C157.450638,45.095844 156.735123,43.633221 153.410294,44.851711 
	C149.045319,46.451397 147.232224,45.355103 145.631424,41.190361 
	C150.868210,41.190361 155.909988,41.190361 160.882660,41.190361 
	C161.490540,34.202057 159.863922,31.160900 155.028961,29.584467 
	C149.903519,27.913322 143.828537,30.142319 141.098038,34.695915 
	C138.163879,39.589161 138.890610,44.288548 143.945953,48.967709 
M110.040146,35.566093 
	C109.144493,40.226460 108.248848,44.886829 107.305290,49.796455 
	C109.284195,49.796455 111.056175,49.796455 113.209572,49.796455 
	C114.521339,43.115971 115.833412,36.433937 117.172775,29.612953 
	C114.797226,29.612953 113.064636,29.612953 111.389572,29.612953 
	C110.931396,31.529659 110.548248,33.132473 110.040146,35.566093 
M82.609329,39.947525 
	C83.124390,38.183277 83.435158,36.670280 80.659615,36.821617 
	C77.879295,36.973217 75.084274,36.854916 72.063988,36.854916 
	C71.975883,38.695896 71.909294,40.087181 71.807541,42.213337 
	C75.643494,41.677162 78.957024,41.214008 82.609329,39.947525 
M111.923424,23.333118 
	C113.301964,24.356770 114.586601,25.926365 116.096550,26.186087 
	C116.917488,26.327297 118.523636,24.388174 118.990128,23.102392 
	C119.239487,22.415054 117.587471,20.170113 117.195816,20.266285 
	C115.376633,20.712992 113.698158,21.732700 111.923424,23.333118 
z"/>
<path fill="#F3F3F3" opacity="1.000000" stroke="none" 
	d="
M101.189323,29.443254 
	C107.443512,32.772739 109.187492,38.305237 106.155014,44.174877 
	C103.379211,49.547695 97.171219,51.813828 91.764885,49.188286 
	C90.211174,48.433739 89.513519,48.000423 88.110741,49.642212 
	C87.386955,50.489304 85.021858,49.934010 83.008629,50.031178 
	C84.759216,41.042561 86.245552,32.430817 88.282265,23.951271 
	C88.608521,22.592962 91.397110,21.826080 93.047386,20.785788 
	C93.470261,21.169361 93.893135,21.552937 94.316017,21.936512 
	C93.923737,24.598021 93.531464,27.259529 93.150826,29.842115 
	C95.792999,29.653215 98.306648,29.473503 101.189323,29.443254 
M97.924454,44.810326 
	C98.851250,43.890732 100.358078,43.091526 100.579346,42.025490 
	C100.990273,40.045769 101.231354,37.630741 100.416611,35.939716 
	C99.888504,34.843586 96.985672,33.839035 95.817436,34.344189 
	C93.944008,35.154266 91.894539,36.986328 91.222137,38.855160 
	C89.700256,43.084999 91.846466,45.080448 97.924454,44.810326 
z"/>
<path fill="#5EE639" opacity="1.000000" stroke="none" 
	d="
M57.301994,23.098825 
	C62.706135,23.098804 67.646469,23.098804 73.036980,23.098804 
	C72.493813,25.112120 72.121368,26.492622 71.685524,28.108152 
	C68.514313,28.108152 65.504478,28.372572 62.560429,28.045261 
	C58.301586,27.571779 56.790722,29.417994 57.210373,33.829460 
	C60.906616,33.829460 64.659492,33.829460 68.689827,33.829460 
	C69.121338,37.405472 68.325287,39.277893 64.645889,38.921177 
	C63.327137,38.793320 61.966072,39.047901 60.657944,38.874413 
	C56.326653,38.299953 54.381638,40.012039 55.156338,44.945648 
	C59.617210,44.945648 64.192604,44.945648 69.192680,44.945648 
	C68.686668,46.942844 68.330292,48.349434 67.950546,49.848274 
	C61.255127,49.848274 54.796963,49.848274 47.457748,49.848274 
	C49.172424,41.214344 50.728550,32.840855 52.658161,24.554335 
	C52.836990,23.786360 55.388420,23.570869 57.301994,23.098825 
z"/>
<path fill="#F4F4F4" opacity="1.000000" stroke="none" 
	d="
M125.988922,35.987514 
	C127.470612,34.986973 128.874115,33.835934 130.450226,33.017136 
	C133.758453,31.298489 137.157394,29.754492 140.519104,28.138790 
	C140.905106,28.759466 141.291107,29.380144 141.677109,30.000820 
	C138.505020,32.737381 135.332947,35.473938 131.945648,38.396164 
	C134.143448,42.097645 136.301086,45.731495 138.467117,49.379486 
	C131.179718,52.487141 130.128876,46.018501 126.468216,41.658733 
	C124.762306,44.503101 123.358170,46.844307 121.628845,49.727715 
	C120.690781,49.727715 118.934982,49.727715 116.564285,49.727715 
	C118.395103,40.445808 120.207016,31.259779 122.061188,21.859474 
	C123.984741,21.859474 125.742973,21.859474 127.993820,21.859474 
	C127.117065,26.476950 126.264221,30.968460 125.524658,35.620461 
	C125.620186,36.061787 125.602432,36.342628 125.584679,36.623470 
	C125.719421,36.411484 125.854172,36.199497 125.988922,35.987514 
z"/>
<path fill="#F4F4F4" opacity="1.000000" stroke="none" 
	d="
M143.596130,48.777534 
	C138.890610,44.288548 138.163879,39.589161 141.098038,34.695915 
	C143.828537,30.142319 149.903519,27.913322 155.028961,29.584467 
	C159.863922,31.160900 161.490540,34.202057 160.882660,41.190361 
	C155.909988,41.190361 150.868210,41.190361 145.631424,41.190361 
	C147.232224,45.355103 149.045319,46.451397 153.410294,44.851711 
	C156.735123,43.633221 157.450638,45.095844 158.192139,47.741337 
	C153.612762,50.788624 148.885666,50.976063 143.596130,48.777534 
M147.000824,35.446533 
	C146.684097,36.136234 146.367371,36.825932 146.035492,37.548603 
	C149.438446,37.548603 152.555099,37.548603 156.082153,37.548603 
	C153.988205,32.819668 151.054764,32.937477 147.000824,35.446533 
z"/>
<path fill="#F3F3F3" opacity="1.000000" stroke="none" 
	d="
M110.102631,35.150688 
	C110.548248,33.132473 110.931396,31.529659 111.389572,29.612953 
	C113.064636,29.612953 114.797226,29.612953 117.172775,29.612953 
	C115.833412,36.433937 114.521339,43.115971 113.209572,49.796455 
	C111.056175,49.796455 109.284195,49.796455 107.305290,49.796455 
	C108.248848,44.886829 109.144493,40.226460 110.102631,35.150688 
z"/>
<path fill="#E9E9E9" opacity="1.000000" stroke="none" 
	d="
M82.439941,40.349190 
	C78.957024,41.214008 75.643494,41.677162 71.807541,42.213337 
	C71.909294,40.087181 71.975883,38.695896 72.063988,36.854916 
	C75.084274,36.854916 77.879295,36.973217 80.659615,36.821617 
	C83.435158,36.670280 83.124390,38.183277 82.439941,40.349190 
z"/>
<path fill="#F1F1F1" opacity="1.000000" stroke="none" 
	d="
M111.946373,22.940216 
	C113.698158,21.732700 115.376633,20.712992 117.195816,20.266285 
	C117.587471,20.170113 119.239487,22.415054 118.990128,23.102392 
	C118.523636,24.388174 116.917488,26.327297 116.096550,26.186087 
	C114.586601,25.926365 113.301964,24.356770 111.946373,22.940216 
z"/>
<path fill="#080808" opacity="1.000000" stroke="none" 
	d="
M97.518707,44.918785 
	C91.846466,45.080448 89.700256,43.084999 91.222137,38.855160 
	C91.894539,36.986328 93.944008,35.154266 95.817436,34.344189 
	C96.985672,33.839035 99.888504,34.843586 100.416611,35.939716 
	C101.231354,37.630741 100.990273,40.045769 100.579346,42.025490 
	C100.358078,43.091526 98.851250,43.890732 97.518707,44.918785 
z"/>
<path fill="#040404" opacity="1.000000" stroke="none" 
	d="
M126.012161,36.018085 
	C125.854172,36.199497 125.719421,36.411484 125.584679,36.623470 
	C125.602432,36.342628 125.620186,36.061787 125.856308,35.947800 
	C126.074692,36.114651 126.035400,36.048656 126.012161,36.018085 
z"/>
<path fill="#151515" opacity="1.000000" stroke="none" 
	d="
M147.300385,35.165264 
	C151.054764,32.937477 153.988205,32.819668 156.082153,37.548603 
	C152.555099,37.548603 149.438446,37.548603 146.035492,37.548603 
	C146.367371,36.825932 146.684097,36.136234 147.300385,35.165264 
z"/>
</svg>